<?xml version="1.0" standalone="no"?><!DOCTYPE svg PUBLIC "-//W3C//DTD SVG 1.1//EN" "http://www.w3.org/Graphics/SVG/1.1/DTD/svg11.dtd"><svg t="1752310808716" class="icon" viewBox="0 0 1025 1024" version="1.1" xmlns="http://www.w3.org/2000/svg" p-id="6070" xmlns:xlink="http://www.w3.org/1999/xlink" width="200.1953125" height="200"><path d="M997.241914 396.30118L582.765452 29.720588C564.247239 11.282392 537.407262 0 511.653229 0s-52.582579 11.282392-70.083433 27.640147L32.271575 385.018787c-41.254462 40.968688-43.300611 99.369643-4.149452 138.235028l102.055927 79.891227v321.531039c0 56.354807 55.668948 99.323919 108.262958 99.323919h548.493453c52.582579 0 95.894621-45.01526 95.89462-99.323919V616.473583l110.309106-81.937376c41.197307-40.968688 43.312042-99.312488 4.103727-138.235027z m-312.912068 354.017928H556.462731v79.491142a42.740492 42.740492 0 0 1-85.469552 0v-79.491142H347.229791a42.740492 42.740492 0 0 1 0-85.469553H470.958886v-44.226521H345.126488a42.740492 42.740492 0 1 1 0-85.469553h89.8019L318.926647 405.868923a42.729061 42.729061 0 0 1 63.590627-57.086391L515.779819 497.2483 649.053794 348.771101a42.729061 42.729061 0 0 1 63.590628 57.086391L596.574094 535.153481h85.732466a42.740492 42.740492 0 0 1 0 85.469553H556.462731v44.21509h127.867115a42.740492 42.740492 0 0 1 0 85.469553z" fill="#2c2c2c" p-id="6071"></path></svg>