<?xml version="1.0" standalone="no"?><!DOCTYPE svg PUBLIC "-//W3C//DTD SVG 1.1//EN" "http://www.w3.org/Graphics/SVG/1.1/DTD/svg11.dtd"><svg t="1776473540122" class="icon" viewBox="0 0 1024 1024" version="1.1" xmlns="http://www.w3.org/2000/svg" p-id="8720" xmlns:xlink="http://www.w3.org/1999/xlink" width="200" height="200"><path d="M173.960514 842.701261 271.058579 842.701261C287.994796 842.701261 301.721125 828.929733 301.721125 811.944499L301.721125 377.898047C301.721125 360.908637 287.992714 347.139196 271.058579 347.139196L173.960514 347.139196C157.024297 347.139196 143.297967 360.910725 143.297967 377.898047L143.297967 811.942412C143.295885 828.929733 157.024297 842.701261 173.960514 842.701261L173.960514 842.701261ZM485.89208 842.701261 582.990143 842.701261C599.926363 842.701261 613.652693 822.569145 613.652693 797.732364L613.652693 163.126921C613.652693 138.288052 599.924279 118.153846 582.990143 118.153846L485.89208 118.153846C468.957944 118.153846 455.229535 138.288052 455.229535 163.126921L455.229535 797.732364C455.229535 822.569145 468.955865 842.701261 485.89208 842.701261L485.89208 842.701261ZM797.823646 842.701261 894.921712 842.701261C911.857928 842.701261 925.584258 823.995368 925.584258 800.910568L925.584258 211.209292C925.584258 188.128668 911.855848 169.420688 894.921712 169.420688L797.823646 169.420688C780.88743 169.420688 767.1611 188.128668 767.1611 211.209292L767.1611 800.910568C767.159016 823.993281 780.88743 842.701261 797.823646 842.701261L797.823646 842.701261ZM39.384615 893.966017 1024 893.966017 1024 945.230769 39.384615 945.230769 39.384615 893.966017 39.384615 893.966017Z" fill="#272636" p-id="8721"></path></svg>