<?xml version="1.0" standalone="no"?><!DOCTYPE svg PUBLIC "-//W3C//DTD SVG 1.1//EN" "http://www.w3.org/Graphics/SVG/1.1/DTD/svg11.dtd"><svg t="1776473503446" class="icon" viewBox="0 0 1024 1024" version="1.1" xmlns="http://www.w3.org/2000/svg" p-id="7646" xmlns:xlink="http://www.w3.org/1999/xlink" width="200" height="200"><path d="M0 409.6v492.8c0 32 12.8 64 35.2 86.4 22.4 22.4 54.4 35.2 86.4 35.2h780.8c32 0 64-12.8 86.4-35.2 22.4-22.4 35.2-54.4 35.2-86.4V409.6H0zM265.6 736l60.8 60.8c6.4 6.4 6.4 16 0 22.4l-25.6 25.6c-3.2 3.2-6.4 3.2-9.6 3.2-3.2 0-6.4-3.2-9.6-3.2L156.8 720c-6.4-6.4-6.4-16 0-22.4l124.8-124.8c3.2-3.2 6.4-3.2 9.6-3.2 3.2 0 6.4 3.2 9.6 3.2l25.6 25.6c6.4 6.4 6.4 16 0 22.4l-60.8 60.8c-16 16-16 38.4 0 54.4z m320-150.4l-89.6 272c-6.4 12.8-16 19.2-28.8 19.2-3.2 0-9.6 0-12.8-3.2-16-6.4-22.4-25.6-16-41.6L528 560c6.4-12.8 16-19.2 28.8-19.2 3.2 0 9.6 0 12.8 3.2 16 6.4 22.4 25.6 16 41.6zM864 716.8L739.2 841.6c-3.2 3.2-6.4 3.2-9.6 3.2-3.2 0-6.4-3.2-9.6-3.2L694.4 816c-6.4-6.4-6.4-16 0-22.4l60.8-60.8c16-16 16-38.4 0-54.4l-60.8-60.8c-6.4-6.4-6.4-16 0-22.4l25.6-25.6c3.2-3.2 6.4-3.2 9.6-3.2 3.2 0 6.4 3.2 9.6 3.2L864 694.4c6.4 6.4 6.4 16 0 22.4zM1024 332.8v-208c0-32-12.8-64-35.2-86.4C966.4 12.8 934.4 0 902.4 0H121.6C54.4 0 0 54.4 0 124.8v208h1024zM313.6 128h268.8c16 0 32 16 32 38.4s-16 38.4-32 38.4H313.6c-16 0-32-16-32-38.4 0-19.2 12.8-38.4 32-38.4zM192 128c22.4 0 38.4 16 38.4 38.4s-16 38.4-38.4 38.4-38.4-16-38.4-38.4c0-19.2 16-38.4 38.4-38.4z" p-id="7647"></path></svg>