<?xml version="1.0" standalone="no"?><!DOCTYPE svg PUBLIC "-//W3C//DTD SVG 1.1//EN" "http://www.w3.org/Graphics/SVG/1.1/DTD/svg11.dtd"><svg t="1776473467872" class="icon" viewBox="0 0 1024 1024" version="1.1" xmlns="http://www.w3.org/2000/svg" p-id="6634" xmlns:xlink="http://www.w3.org/1999/xlink" width="200" height="200"><path d="M322.141396 591.862909c-15.309684 0-27.79709 12.378935-27.79709 27.79709 0 15.310707 12.487406 27.798113 27.79709 27.798113l166.784584 0L488.92598 786.444583c0 15.310707 12.486382 27.79709 27.79709 27.79709s27.79709-12.486382 27.79709-27.79709L544.520159 647.458111 711.30372 647.458111c15.310707 0 27.79709-12.487406 27.79709-27.798113 0-15.418154-12.486382-27.79709-27.79709-27.79709L544.520159 591.862909l0-55.594179L711.30372 536.26873c15.310707 0 27.79709-12.487406 27.79709-27.798113 0-15.418154-12.486382-27.79709-27.79709-27.79709L556.030307 480.673527l142.352125-142.352125c10.858302-10.858302 10.858302-28.448936 0-39.307238s-28.448936-10.858302-39.307238 0l-142.352125 142.352125L374.369921 299.013141c-10.857279-10.967796-28.448936-10.967796-39.307238 0-10.857279 10.858302-10.857279 28.339442 0 39.307238l142.353149 142.352125L322.141396 480.672504c-15.309684 0-27.79709 12.378935-27.79709 27.79709 0 15.310707 12.487406 27.798113 27.79709 27.798113l166.784584 0 0 55.594179L322.141396 591.861886z" p-id="6635"></path><path d="M928.90569 145.58475c-15.364943 0-27.79709 12.432147-27.79709 27.79709l0 119.66031C823.335283 157.094898 676.829558 66.861804 511.945253 66.861804c-225.50087 0-416.553161 168.684864-444.433138 392.366296-1.899256 15.201214 8.903787 29.100782 24.13263 31.001061 1.167592 0.162706 2.334161 0.216941 3.475148 0.216941 13.817704 0 25.816992-10.314926 27.553543-24.376177 24.40483-195.885366 191.759395-343.612918 389.271818-343.612918 197.459211 0 364.868011 147.727553 389.380288 343.667154 1.818415 14.550391 14.522762 25.571399 29.317723 24.26873 14.631232-0.923022 26.059516-13.083993 26.059516-27.742854L956.70278 173.381839C956.70278 158.016897 944.270633 145.58475 928.90569 145.58475z" p-id="6636"></path><path d="M932.353209 533.770839c-15.310707-2.172479-29.127388 8.958022-31.027667 24.159236-24.458041 195.884342-191.866842 343.612918-389.380288 343.612918S147.078265 753.815441 122.673435 557.931099c-1.818415-14.604626-15.201214-25.571399-29.290093-24.322965-14.658861 0.921999-26.087145 13.083993-26.087145 27.741831l0 289.375643c0 15.364943 12.432147 27.79709 27.79709 27.79709s27.79709-12.432147 27.79709-27.79709L122.890376 731.067344c77.746712 135.891993 224.198202 226.070852 389.054877 226.070852 225.499847 0 416.607396-168.684864 444.540585-392.367319C958.387142 549.569664 947.582051 535.671119 932.353209 533.770839z" p-id="6637"></path></svg>